G75*
%MOIN*%
%OFA0B0*%
%FSLAX25Y25*%
%IPPOS*%
%LPD*%
%AMOC8*
5,1,8,0,0,1.08239X$1,22.5*
%
%ADD10R,0.10630X0.06299*%
%ADD11R,0.06299X0.10630*%
%ADD12R,0.05900X0.07900*%
%ADD13R,0.15000X0.07900*%
%ADD14R,0.02362X0.08661*%
%ADD15R,0.04724X0.02165*%
%ADD16R,0.02165X0.04724*%
%ADD17R,0.08000X0.08000*%
%ADD18C,0.08000*%
%ADD19C,0.07000*%
%ADD20C,0.04000*%
%ADD21C,0.10000*%
%ADD22C,0.01600*%
D10*
X0060800Y0081288D03*
X0060800Y0092312D03*
X0074800Y0092312D03*
X0074800Y0081288D03*
X0084800Y0042312D03*
X0084800Y0031288D03*
X0097800Y0031288D03*
X0097800Y0042312D03*
D11*
X0070312Y0023800D03*
X0059288Y0023800D03*
X0023312Y0063800D03*
X0012288Y0063800D03*
X0016288Y0076800D03*
X0027312Y0076800D03*
X0036288Y0076800D03*
X0047312Y0076800D03*
X0027312Y0089800D03*
X0016288Y0089800D03*
X0080288Y0069800D03*
X0091312Y0069800D03*
D12*
X0049700Y0065200D03*
X0040700Y0065200D03*
X0031700Y0065200D03*
D13*
X0040800Y0040400D03*
D14*
X0059300Y0036564D03*
X0064300Y0036564D03*
X0069300Y0036564D03*
X0074300Y0036564D03*
X0074300Y0057036D03*
X0069300Y0057036D03*
X0064300Y0057036D03*
X0059300Y0057036D03*
D15*
X0058682Y0065060D03*
X0058682Y0068800D03*
X0058682Y0072540D03*
X0068918Y0072540D03*
X0068918Y0065060D03*
X0045918Y0086060D03*
X0045918Y0093540D03*
X0035682Y0093540D03*
X0035682Y0089800D03*
X0035682Y0086060D03*
D16*
X0081060Y0059918D03*
X0084800Y0059918D03*
X0088540Y0059918D03*
X0088540Y0049682D03*
X0081060Y0049682D03*
D17*
X0121800Y0030800D03*
X0121800Y0075800D03*
X0086800Y0115800D03*
X0041800Y0115800D03*
X0016800Y0016800D03*
D18*
X0036485Y0016800D03*
X0121800Y0050485D03*
X0121800Y0095485D03*
X0067115Y0115800D03*
X0022115Y0115800D03*
D19*
X0027800Y0096800D02*
X0027800Y0091800D01*
X0027800Y0090288D01*
X0027800Y0077288D01*
X0035800Y0077288D01*
X0036288Y0076800D01*
X0036288Y0074312D01*
X0039800Y0070800D01*
X0039800Y0069800D01*
X0040800Y0068800D01*
X0040800Y0065300D01*
X0040700Y0065200D01*
X0027800Y0077288D02*
X0027312Y0076800D01*
X0027312Y0089800D02*
X0027800Y0090288D01*
X0027800Y0096800D02*
X0041800Y0110800D01*
X0041800Y0115800D01*
X0060800Y0095800D02*
X0060800Y0092312D01*
X0059572Y0093540D01*
X0045918Y0093540D01*
X0060800Y0095800D02*
X0080800Y0115800D01*
X0086800Y0115800D01*
X0074800Y0081288D02*
X0071800Y0078288D01*
X0071800Y0074800D01*
X0069540Y0072540D01*
X0068918Y0072540D01*
X0074800Y0081288D02*
X0116312Y0081288D01*
X0121800Y0075800D01*
D20*
X0101800Y0051800D02*
X0123800Y0029800D01*
X0120800Y0029800D01*
X0121800Y0030800D01*
X0119800Y0030800D01*
X0118800Y0029800D01*
X0114800Y0029800D01*
X0104800Y0039800D01*
X0095800Y0048800D01*
X0095800Y0044312D01*
X0097800Y0042312D01*
X0097800Y0045800D01*
X0094800Y0048800D01*
X0089422Y0048800D01*
X0088540Y0049682D01*
X0089800Y0051800D02*
X0101800Y0051800D01*
X0102800Y0049800D02*
X0098800Y0049800D01*
X0118800Y0029800D01*
X0120800Y0029800D01*
X0121800Y0030800D02*
X0102800Y0049800D01*
X0093800Y0047800D02*
X0089800Y0051800D01*
X0093800Y0047800D02*
X0093800Y0039800D01*
X0104800Y0039800D01*
X0084800Y0042312D02*
X0084800Y0045942D01*
X0081060Y0049682D01*
X0084800Y0054800D02*
X0073800Y0054800D01*
X0073800Y0066800D01*
X0074800Y0066800D01*
X0075800Y0065800D01*
X0075800Y0057800D01*
X0076800Y0056800D01*
X0080800Y0056800D01*
X0081800Y0057800D01*
X0081800Y0063800D01*
X0078800Y0063800D01*
X0078800Y0059800D01*
X0080800Y0059800D01*
X0080918Y0059918D01*
X0081060Y0059918D01*
X0081060Y0069028D01*
X0080288Y0069800D01*
X0078800Y0071800D02*
X0084800Y0071800D01*
X0084800Y0059918D01*
X0084682Y0059800D01*
X0080942Y0059800D01*
X0081060Y0059918D01*
X0080942Y0059800D02*
X0080800Y0059800D01*
X0084800Y0059918D02*
X0084800Y0054800D01*
X0074300Y0057036D02*
X0074300Y0067300D01*
X0078800Y0071800D01*
X0059800Y0063942D02*
X0059800Y0061800D01*
X0059800Y0051800D01*
X0041800Y0051800D01*
X0040800Y0050800D01*
X0040800Y0040400D01*
X0040800Y0051800D02*
X0041800Y0051800D01*
X0040800Y0051800D02*
X0040800Y0065300D01*
X0038800Y0068800D02*
X0032800Y0074800D01*
X0029800Y0074800D01*
X0028800Y0075800D01*
X0032800Y0080288D02*
X0036288Y0076800D01*
X0032800Y0080288D02*
X0032800Y0083800D01*
X0033800Y0082800D01*
X0035800Y0082800D01*
X0034800Y0081800D01*
X0032800Y0081800D01*
X0030800Y0083800D01*
X0030800Y0085800D01*
X0031060Y0086060D01*
X0035682Y0086060D01*
X0030800Y0092800D02*
X0029800Y0092800D01*
X0032800Y0095800D01*
X0035060Y0093540D01*
X0035682Y0093540D01*
X0033800Y0093800D02*
X0031800Y0093800D01*
X0029800Y0093800D01*
X0027800Y0091800D01*
X0030800Y0092800D02*
X0031800Y0093800D01*
X0038800Y0068800D02*
X0042800Y0068800D01*
X0042800Y0059800D01*
X0044800Y0057800D01*
X0053800Y0057800D01*
X0055800Y0059800D01*
X0055800Y0060800D01*
X0058682Y0063682D01*
X0058682Y0065060D01*
X0058682Y0055682D01*
X0055800Y0052800D01*
X0051800Y0052800D01*
X0051800Y0053800D01*
X0055800Y0057800D01*
X0055800Y0059800D01*
X0055800Y0060800D02*
X0047800Y0052800D01*
X0046800Y0052800D01*
X0043800Y0055800D01*
X0043800Y0056800D01*
X0044036Y0057036D01*
X0059300Y0057036D01*
X0059800Y0063942D02*
X0058682Y0065060D01*
X0043800Y0058800D02*
X0043800Y0056800D01*
X0064300Y0036564D02*
X0064800Y0036064D01*
X0064800Y0030800D01*
X0059288Y0025288D01*
X0059288Y0023800D01*
X0070312Y0023800D02*
X0070800Y0023800D01*
X0074800Y0027800D01*
X0074800Y0036064D01*
X0074300Y0036564D01*
D21*
X0031700Y0065200D02*
X0024712Y0065200D01*
X0023312Y0063800D01*
X0022800Y0063288D01*
X0022800Y0054800D01*
X0016800Y0048800D01*
X0016800Y0016800D01*
D22*
X0007400Y0007400D02*
X0007400Y0058019D01*
X0007461Y0057790D01*
X0007698Y0057380D01*
X0008033Y0057045D01*
X0008444Y0056808D01*
X0008902Y0056685D01*
X0011513Y0056685D01*
X0011513Y0063025D01*
X0013063Y0063025D01*
X0013063Y0056685D01*
X0015068Y0056685D01*
X0011035Y0052652D01*
X0010000Y0050153D01*
X0010000Y0015447D01*
X0011000Y0013033D01*
X0011000Y0012054D01*
X0012054Y0011000D01*
X0013033Y0011000D01*
X0015447Y0010000D01*
X0018153Y0010000D01*
X0020567Y0011000D01*
X0021546Y0011000D01*
X0022600Y0012054D01*
X0022600Y0013033D01*
X0023600Y0015447D01*
X0023600Y0045983D01*
X0026652Y0049035D01*
X0028565Y0050948D01*
X0029600Y0053447D01*
X0029600Y0058400D01*
X0033053Y0058400D01*
X0035552Y0059435D01*
X0036286Y0060169D01*
X0037000Y0059454D01*
X0037000Y0046150D01*
X0032554Y0046150D01*
X0031500Y0045096D01*
X0031500Y0035704D01*
X0032554Y0034650D01*
X0049046Y0034650D01*
X0050100Y0035704D01*
X0050100Y0045096D01*
X0049046Y0046150D01*
X0044600Y0046150D01*
X0044600Y0048000D01*
X0060556Y0048000D01*
X0061953Y0048579D01*
X0063021Y0049647D01*
X0063543Y0050906D01*
X0066227Y0050906D01*
X0066800Y0051479D01*
X0067014Y0051265D01*
X0067424Y0051028D01*
X0067882Y0050906D01*
X0069300Y0050905D01*
X0069300Y0057036D01*
X0069300Y0050906D01*
X0070718Y0050906D01*
X0071176Y0051028D01*
X0071586Y0051265D01*
X0071800Y0051479D01*
X0072373Y0050906D01*
X0076227Y0050906D01*
X0076321Y0051000D01*
X0077493Y0051000D01*
X0077260Y0050438D01*
X0077260Y0048926D01*
X0077838Y0047529D01*
X0078177Y0047191D01*
X0078177Y0046699D01*
X0077685Y0046207D01*
X0077685Y0038553D01*
X0077281Y0038957D01*
X0077281Y0041640D01*
X0076227Y0042694D01*
X0072373Y0042694D01*
X0071800Y0042121D01*
X0071586Y0042335D01*
X0071176Y0042572D01*
X0070718Y0042694D01*
X0069300Y0042694D01*
X0069300Y0036564D01*
X0069300Y0036564D01*
X0069300Y0042694D01*
X0067882Y0042694D01*
X0067424Y0042572D01*
X0067014Y0042335D01*
X0066800Y0042121D01*
X0066227Y0042694D01*
X0062373Y0042694D01*
X0061800Y0042121D01*
X0061586Y0042335D01*
X0061176Y0042572D01*
X0060718Y0042694D01*
X0059300Y0042694D01*
X0057882Y0042694D01*
X0057424Y0042572D01*
X0057014Y0042335D01*
X0056679Y0042000D01*
X0056442Y0041589D01*
X0056319Y0041131D01*
X0056319Y0036564D01*
X0059300Y0036564D01*
X0059300Y0036564D01*
X0059300Y0042694D01*
X0059300Y0036564D01*
X0059300Y0036564D01*
X0056319Y0036564D01*
X0056319Y0031996D01*
X0056442Y0031538D01*
X0056679Y0031128D01*
X0056891Y0030915D01*
X0055393Y0030915D01*
X0054339Y0029861D01*
X0054339Y0017739D01*
X0055393Y0016685D01*
X0063183Y0016685D01*
X0064238Y0017739D01*
X0064238Y0024864D01*
X0065362Y0025988D01*
X0065362Y0017739D01*
X0066417Y0016685D01*
X0074207Y0016685D01*
X0075261Y0017739D01*
X0075261Y0022887D01*
X0076953Y0024579D01*
X0078021Y0025647D01*
X0078442Y0026662D01*
X0078790Y0026461D01*
X0079248Y0026339D01*
X0084025Y0026339D01*
X0084025Y0030513D01*
X0085575Y0030513D01*
X0085575Y0026339D01*
X0090352Y0026339D01*
X0090810Y0026461D01*
X0091220Y0026698D01*
X0091300Y0026778D01*
X0091380Y0026698D01*
X0091790Y0026461D01*
X0092248Y0026339D01*
X0097025Y0026339D01*
X0097025Y0030513D01*
X0098575Y0030513D01*
X0098575Y0026339D01*
X0103352Y0026339D01*
X0103810Y0026461D01*
X0104220Y0026698D01*
X0104555Y0027033D01*
X0104792Y0027444D01*
X0104915Y0027902D01*
X0104915Y0030513D01*
X0098575Y0030513D01*
X0098575Y0032063D01*
X0104915Y0032063D01*
X0104915Y0034311D01*
X0112647Y0026579D01*
X0114044Y0026000D01*
X0116054Y0026000D01*
X0117054Y0025000D01*
X0126546Y0025000D01*
X0127600Y0026054D01*
X0127600Y0035546D01*
X0126546Y0036600D01*
X0122374Y0036600D01*
X0103953Y0055021D01*
X0102556Y0055600D01*
X0089044Y0055600D01*
X0088600Y0055416D01*
X0088600Y0055756D01*
X0089860Y0055756D01*
X0090318Y0055879D01*
X0090728Y0056116D01*
X0091063Y0056451D01*
X0091300Y0056861D01*
X0091423Y0057319D01*
X0091423Y0059918D01*
X0088600Y0059918D01*
X0088600Y0059918D01*
X0091423Y0059918D01*
X0091423Y0062517D01*
X0091300Y0062975D01*
X0091063Y0063386D01*
X0090728Y0063721D01*
X0090537Y0063831D01*
X0090537Y0069025D01*
X0092087Y0069025D01*
X0092087Y0070575D01*
X0096261Y0070575D01*
X0096261Y0075352D01*
X0096139Y0075810D01*
X0096036Y0075988D01*
X0114116Y0075988D01*
X0116000Y0074105D01*
X0116000Y0071054D01*
X0117054Y0070000D01*
X0126546Y0070000D01*
X0127600Y0071054D01*
X0127600Y0080546D01*
X0126546Y0081600D01*
X0123495Y0081600D01*
X0119314Y0085781D01*
X0117366Y0086588D01*
X0073746Y0086588D01*
X0072900Y0086238D01*
X0068739Y0086238D01*
X0067734Y0085233D01*
X0067555Y0085543D01*
X0067220Y0085878D01*
X0066810Y0086115D01*
X0066352Y0086238D01*
X0061575Y0086238D01*
X0061575Y0082063D01*
X0060025Y0082063D01*
X0060025Y0080513D01*
X0053685Y0080513D01*
X0053685Y0077902D01*
X0053808Y0077444D01*
X0054045Y0077033D01*
X0054380Y0076698D01*
X0054790Y0076461D01*
X0055179Y0076357D01*
X0054327Y0076004D01*
X0053596Y0075273D01*
X0053200Y0074317D01*
X0053200Y0071283D01*
X0053402Y0070794D01*
X0053345Y0070827D01*
X0052887Y0070950D01*
X0052182Y0070950D01*
X0052261Y0071248D01*
X0052261Y0076025D01*
X0048087Y0076025D01*
X0048087Y0077575D01*
X0052261Y0077575D01*
X0052261Y0082352D01*
X0052139Y0082810D01*
X0051902Y0083220D01*
X0051567Y0083555D01*
X0051156Y0083792D01*
X0050698Y0083915D01*
X0049764Y0083915D01*
X0050080Y0084232D01*
X0050080Y0087888D01*
X0049728Y0088240D01*
X0053861Y0088240D01*
X0054739Y0087362D01*
X0058900Y0087362D01*
X0059746Y0087012D01*
X0061854Y0087012D01*
X0062700Y0087362D01*
X0066861Y0087362D01*
X0067866Y0088367D01*
X0068045Y0088057D01*
X0068380Y0087722D01*
X0068790Y0087485D01*
X0069248Y0087362D01*
X0074025Y0087362D01*
X0074025Y0091537D01*
X0075575Y0091537D01*
X0075575Y0093087D01*
X0074025Y0093087D01*
X0074025Y0097261D01*
X0069757Y0097261D01*
X0082495Y0110000D01*
X0091546Y0110000D01*
X0092600Y0111054D01*
X0092600Y0120546D01*
X0091546Y0121600D01*
X0082054Y0121600D01*
X0081554Y0121100D01*
X0079746Y0121100D01*
X0077798Y0120293D01*
X0072825Y0115320D01*
X0067595Y0115320D01*
X0067595Y0116280D01*
X0067594Y0116280D02*
X0066635Y0116280D01*
X0066635Y0121596D01*
X0065757Y0121457D01*
X0064889Y0121175D01*
X0064075Y0120761D01*
X0063337Y0120224D01*
X0062691Y0119578D01*
X0062154Y0118840D01*
X0061740Y0118026D01*
X0061458Y0117158D01*
X0061319Y0116280D01*
X0066635Y0116280D01*
X0066635Y0115320D01*
X0067594Y0115320D01*
X0067594Y0110090D01*
X0057798Y0100293D01*
X0057798Y0100293D01*
X0056345Y0098840D01*
X0044864Y0098840D01*
X0042916Y0098033D01*
X0041425Y0096542D01*
X0040618Y0094594D01*
X0040618Y0092486D01*
X0041425Y0090538D01*
X0042916Y0089047D01*
X0043168Y0088943D01*
X0042810Y0088943D01*
X0041756Y0087888D01*
X0041756Y0084232D01*
X0042745Y0083243D01*
X0042722Y0083220D01*
X0042485Y0082810D01*
X0042362Y0082352D01*
X0042362Y0077575D01*
X0046537Y0077575D01*
X0046537Y0076025D01*
X0042362Y0076025D01*
X0042362Y0075733D01*
X0041588Y0076507D01*
X0041588Y0077854D01*
X0041238Y0078700D01*
X0041238Y0082861D01*
X0040183Y0083915D01*
X0039527Y0083915D01*
X0039844Y0084232D01*
X0039844Y0087888D01*
X0039717Y0088015D01*
X0039721Y0088023D01*
X0039844Y0088480D01*
X0039844Y0089800D01*
X0039844Y0091120D01*
X0039721Y0091577D01*
X0039717Y0091585D01*
X0039844Y0091712D01*
X0039844Y0095368D01*
X0038790Y0096423D01*
X0038173Y0096423D01*
X0037834Y0096762D01*
X0036773Y0097201D01*
X0036235Y0097739D01*
X0046293Y0107798D01*
X0047100Y0109746D01*
X0047100Y0110554D01*
X0047600Y0111054D01*
X0047600Y0120546D01*
X0046546Y0121600D01*
X0037054Y0121600D01*
X0036000Y0120546D01*
X0036000Y0112495D01*
X0024798Y0101293D01*
X0023307Y0099802D01*
X0022500Y0097854D01*
X0022500Y0095998D01*
X0022362Y0095861D01*
X0022362Y0091700D01*
X0022012Y0090854D01*
X0022012Y0088746D01*
X0022362Y0087900D01*
X0022362Y0083739D01*
X0022500Y0083602D01*
X0022500Y0082998D01*
X0022362Y0082861D01*
X0022362Y0078700D01*
X0022012Y0077854D01*
X0022012Y0075746D01*
X0022362Y0074900D01*
X0022362Y0071587D01*
X0021200Y0071105D01*
X0021238Y0071248D01*
X0021238Y0076025D01*
X0017063Y0076025D01*
X0017063Y0077575D01*
X0015513Y0077575D01*
X0015513Y0076025D01*
X0011339Y0076025D01*
X0011339Y0071248D01*
X0011428Y0070915D01*
X0008902Y0070915D01*
X0008444Y0070792D01*
X0008033Y0070555D01*
X0007698Y0070220D01*
X0007461Y0069810D01*
X0007400Y0069581D01*
X0007400Y0126200D01*
X0131200Y0126200D01*
X0131200Y0007400D01*
X0007400Y0007400D01*
X0007400Y0008194D02*
X0131200Y0008194D01*
X0131200Y0009793D02*
X0007400Y0009793D01*
X0007400Y0011391D02*
X0011663Y0011391D01*
X0011000Y0012990D02*
X0007400Y0012990D01*
X0007400Y0014588D02*
X0010356Y0014588D01*
X0010000Y0016187D02*
X0007400Y0016187D01*
X0007400Y0017785D02*
X0010000Y0017785D01*
X0010000Y0019384D02*
X0007400Y0019384D01*
X0007400Y0020982D02*
X0010000Y0020982D01*
X0010000Y0022581D02*
X0007400Y0022581D01*
X0007400Y0024179D02*
X0010000Y0024179D01*
X0010000Y0025778D02*
X0007400Y0025778D01*
X0007400Y0027376D02*
X0010000Y0027376D01*
X0010000Y0028975D02*
X0007400Y0028975D01*
X0007400Y0030573D02*
X0010000Y0030573D01*
X0010000Y0032172D02*
X0007400Y0032172D01*
X0007400Y0033770D02*
X0010000Y0033770D01*
X0010000Y0035369D02*
X0007400Y0035369D01*
X0007400Y0036967D02*
X0010000Y0036967D01*
X0010000Y0038566D02*
X0007400Y0038566D01*
X0007400Y0040164D02*
X0010000Y0040164D01*
X0010000Y0041763D02*
X0007400Y0041763D01*
X0007400Y0043361D02*
X0010000Y0043361D01*
X0010000Y0044960D02*
X0007400Y0044960D01*
X0007400Y0046558D02*
X0010000Y0046558D01*
X0010000Y0048157D02*
X0007400Y0048157D01*
X0007400Y0049755D02*
X0010000Y0049755D01*
X0010498Y0051354D02*
X0007400Y0051354D01*
X0007400Y0052952D02*
X0011336Y0052952D01*
X0012934Y0054551D02*
X0007400Y0054551D01*
X0007400Y0056149D02*
X0014533Y0056149D01*
X0013063Y0057748D02*
X0011513Y0057748D01*
X0011513Y0059346D02*
X0013063Y0059346D01*
X0013063Y0060945D02*
X0011513Y0060945D01*
X0011513Y0062543D02*
X0013063Y0062543D01*
X0012288Y0063800D02*
X0012288Y0072800D01*
X0016288Y0076800D01*
X0015513Y0076930D02*
X0007400Y0076930D01*
X0007400Y0075332D02*
X0011339Y0075332D01*
X0011339Y0073733D02*
X0007400Y0073733D01*
X0007400Y0072134D02*
X0011339Y0072134D01*
X0008014Y0070536D02*
X0007400Y0070536D01*
X0007400Y0078529D02*
X0011339Y0078529D01*
X0011339Y0077575D02*
X0015513Y0077575D01*
X0015513Y0089025D01*
X0011339Y0089025D01*
X0011339Y0084248D01*
X0011461Y0083790D01*
X0011698Y0083380D01*
X0011778Y0083300D01*
X0011698Y0083220D01*
X0011461Y0082810D01*
X0011339Y0082352D01*
X0011339Y0077575D01*
X0011339Y0080127D02*
X0007400Y0080127D01*
X0007400Y0081726D02*
X0011339Y0081726D01*
X0011754Y0083324D02*
X0007400Y0083324D01*
X0007400Y0084923D02*
X0011339Y0084923D01*
X0011339Y0086521D02*
X0007400Y0086521D01*
X0007400Y0088120D02*
X0011339Y0088120D01*
X0011339Y0090575D02*
X0015513Y0090575D01*
X0015513Y0089025D01*
X0017063Y0089025D01*
X0017063Y0082685D01*
X0017063Y0077575D01*
X0021238Y0077575D01*
X0021238Y0082352D01*
X0021115Y0082810D01*
X0020878Y0083220D01*
X0020798Y0083300D01*
X0020878Y0083380D01*
X0021115Y0083790D01*
X0021238Y0084248D01*
X0021238Y0089025D01*
X0017063Y0089025D01*
X0017063Y0090575D01*
X0015513Y0090575D01*
X0015513Y0096915D01*
X0012902Y0096915D01*
X0012444Y0096792D01*
X0012033Y0096555D01*
X0011698Y0096220D01*
X0011461Y0095810D01*
X0011339Y0095352D01*
X0011339Y0090575D01*
X0011339Y0091317D02*
X0007400Y0091317D01*
X0007400Y0092915D02*
X0011339Y0092915D01*
X0011339Y0094514D02*
X0007400Y0094514D01*
X0007400Y0096112D02*
X0011636Y0096112D01*
X0015513Y0096112D02*
X0017063Y0096112D01*
X0017063Y0096915D02*
X0017063Y0090575D01*
X0021238Y0090575D01*
X0021238Y0095352D01*
X0021115Y0095810D01*
X0020878Y0096220D01*
X0020543Y0096555D01*
X0020133Y0096792D01*
X0019675Y0096915D01*
X0017063Y0096915D01*
X0017063Y0094514D02*
X0015513Y0094514D01*
X0015513Y0092915D02*
X0017063Y0092915D01*
X0017063Y0091317D02*
X0015513Y0091317D01*
X0015513Y0089718D02*
X0007400Y0089718D01*
X0007400Y0097711D02*
X0022500Y0097711D01*
X0023103Y0099309D02*
X0007400Y0099309D01*
X0007400Y0100908D02*
X0024412Y0100908D01*
X0026011Y0102506D02*
X0007400Y0102506D01*
X0007400Y0104105D02*
X0027609Y0104105D01*
X0029208Y0105703D02*
X0007400Y0105703D01*
X0007400Y0107302D02*
X0030806Y0107302D01*
X0032405Y0108900D02*
X0007400Y0108900D01*
X0007400Y0110499D02*
X0019744Y0110499D01*
X0019889Y0110425D02*
X0020757Y0110143D01*
X0021635Y0110004D01*
X0021635Y0115320D01*
X0022594Y0115320D01*
X0022594Y0110004D01*
X0023473Y0110143D01*
X0024341Y0110425D01*
X0025155Y0110839D01*
X0025893Y0111376D01*
X0026539Y0112022D01*
X0027076Y0112760D01*
X0027490Y0113574D01*
X0027772Y0114442D01*
X0027911Y0115320D01*
X0022595Y0115320D01*
X0022595Y0116280D01*
X0027911Y0116280D01*
X0027772Y0117158D01*
X0027490Y0118026D01*
X0027076Y0118840D01*
X0026539Y0119578D01*
X0025893Y0120224D01*
X0025155Y0120761D01*
X0024341Y0121175D01*
X0023473Y0121457D01*
X0022594Y0121596D01*
X0022594Y0116280D01*
X0021635Y0116280D01*
X0021635Y0121596D01*
X0020757Y0121457D01*
X0019889Y0121175D01*
X0019075Y0120761D01*
X0018337Y0120224D01*
X0017691Y0119578D01*
X0017154Y0118840D01*
X0016740Y0118026D01*
X0016458Y0117158D01*
X0016319Y0116280D01*
X0021635Y0116280D01*
X0021635Y0115320D01*
X0016319Y0115320D01*
X0016458Y0114442D01*
X0016740Y0113574D01*
X0017154Y0112760D01*
X0017691Y0112022D01*
X0018337Y0111376D01*
X0019075Y0110839D01*
X0019889Y0110425D01*
X0021635Y0110499D02*
X0022594Y0110499D01*
X0022594Y0112097D02*
X0021635Y0112097D01*
X0021635Y0113696D02*
X0022594Y0113696D01*
X0022594Y0115294D02*
X0021635Y0115294D01*
X0021635Y0116893D02*
X0022594Y0116893D01*
X0022594Y0118491D02*
X0021635Y0118491D01*
X0021635Y0120090D02*
X0022594Y0120090D01*
X0026028Y0120090D02*
X0036000Y0120090D01*
X0036000Y0118491D02*
X0027253Y0118491D01*
X0027814Y0116893D02*
X0036000Y0116893D01*
X0036000Y0115294D02*
X0027907Y0115294D01*
X0027530Y0113696D02*
X0036000Y0113696D01*
X0035602Y0112097D02*
X0026594Y0112097D01*
X0024486Y0110499D02*
X0034003Y0110499D01*
X0041002Y0102506D02*
X0060011Y0102506D01*
X0058412Y0100908D02*
X0039403Y0100908D01*
X0037805Y0099309D02*
X0056814Y0099309D01*
X0061609Y0104105D02*
X0042600Y0104105D01*
X0044199Y0105703D02*
X0063208Y0105703D01*
X0064806Y0107302D02*
X0045797Y0107302D01*
X0046750Y0108900D02*
X0066405Y0108900D01*
X0066635Y0110004D02*
X0065757Y0110143D01*
X0064889Y0110425D01*
X0064075Y0110839D01*
X0063337Y0111376D01*
X0062691Y0112022D01*
X0062154Y0112760D01*
X0061740Y0113574D01*
X0061458Y0114442D01*
X0061319Y0115320D01*
X0066635Y0115320D01*
X0066635Y0110004D01*
X0066635Y0110499D02*
X0067594Y0110499D01*
X0067594Y0112097D02*
X0066635Y0112097D01*
X0066635Y0113696D02*
X0067594Y0113696D01*
X0067594Y0115294D02*
X0066635Y0115294D01*
X0067594Y0116280D02*
X0067594Y0121596D01*
X0068473Y0121457D01*
X0069341Y0121175D01*
X0070155Y0120761D01*
X0070893Y0120224D01*
X0071539Y0119578D01*
X0072076Y0118840D01*
X0072490Y0118026D01*
X0072772Y0117158D01*
X0072911Y0116280D01*
X0067595Y0116280D01*
X0067594Y0116893D02*
X0066635Y0116893D01*
X0066635Y0118491D02*
X0067594Y0118491D01*
X0067594Y0120090D02*
X0066635Y0120090D01*
X0063202Y0120090D02*
X0047600Y0120090D01*
X0047600Y0118491D02*
X0061977Y0118491D01*
X0061416Y0116893D02*
X0047600Y0116893D01*
X0047600Y0115294D02*
X0061323Y0115294D01*
X0061700Y0113696D02*
X0047600Y0113696D01*
X0047600Y0112097D02*
X0062636Y0112097D01*
X0064744Y0110499D02*
X0047100Y0110499D01*
X0042593Y0097711D02*
X0036263Y0097711D01*
X0039100Y0096112D02*
X0041247Y0096112D01*
X0040618Y0094514D02*
X0039844Y0094514D01*
X0039844Y0092915D02*
X0040618Y0092915D01*
X0041102Y0091317D02*
X0039791Y0091317D01*
X0039844Y0089800D02*
X0036582Y0089800D01*
X0036582Y0089800D01*
X0036582Y0089800D01*
X0039844Y0089800D01*
X0039844Y0089718D02*
X0042245Y0089718D01*
X0041987Y0088120D02*
X0039747Y0088120D01*
X0039844Y0086521D02*
X0041756Y0086521D01*
X0041756Y0084923D02*
X0039844Y0084923D01*
X0040774Y0083324D02*
X0042663Y0083324D01*
X0042800Y0082800D02*
X0041800Y0081800D01*
X0043800Y0081800D01*
X0044800Y0080800D01*
X0043800Y0080800D01*
X0043800Y0080312D01*
X0047312Y0076800D01*
X0048087Y0076930D02*
X0054148Y0076930D01*
X0053685Y0078529D02*
X0052261Y0078529D01*
X0052261Y0080127D02*
X0053685Y0080127D01*
X0053685Y0082063D02*
X0060025Y0082063D01*
X0060025Y0086238D01*
X0055248Y0086238D01*
X0054790Y0086115D01*
X0054380Y0085878D01*
X0054045Y0085543D01*
X0053808Y0085133D01*
X0053685Y0084675D01*
X0053685Y0082063D01*
X0053685Y0083324D02*
X0051798Y0083324D01*
X0050800Y0082800D02*
X0042800Y0082800D01*
X0042362Y0081726D02*
X0041238Y0081726D01*
X0041238Y0080127D02*
X0042362Y0080127D01*
X0042800Y0078800D02*
X0043800Y0079800D01*
X0050800Y0072800D01*
X0050800Y0082800D01*
X0052261Y0081726D02*
X0060025Y0081726D01*
X0060025Y0083324D02*
X0061575Y0083324D01*
X0061575Y0084923D02*
X0060025Y0084923D01*
X0053751Y0084923D02*
X0050080Y0084923D01*
X0050080Y0086521D02*
X0073584Y0086521D01*
X0074025Y0088120D02*
X0075575Y0088120D01*
X0075575Y0087362D02*
X0080352Y0087362D01*
X0080810Y0087485D01*
X0081220Y0087722D01*
X0081555Y0088057D01*
X0081792Y0088467D01*
X0081915Y0088925D01*
X0081915Y0091537D01*
X0075575Y0091537D01*
X0075575Y0087362D01*
X0075575Y0089718D02*
X0074025Y0089718D01*
X0074025Y0091317D02*
X0075575Y0091317D01*
X0075575Y0092915D02*
X0116600Y0092915D01*
X0116425Y0093259D02*
X0116839Y0092445D01*
X0117376Y0091707D01*
X0118022Y0091061D01*
X0118760Y0090524D01*
X0119574Y0090110D01*
X0120442Y0089828D01*
X0121320Y0089689D01*
X0121320Y0095005D01*
X0116004Y0095005D01*
X0116143Y0094127D01*
X0116425Y0093259D01*
X0116082Y0094514D02*
X0081915Y0094514D01*
X0081915Y0095698D02*
X0081915Y0093087D01*
X0075575Y0093087D01*
X0075575Y0097261D01*
X0080352Y0097261D01*
X0080810Y0097139D01*
X0081220Y0096902D01*
X0081555Y0096567D01*
X0081792Y0096156D01*
X0081915Y0095698D01*
X0081804Y0096112D02*
X0116027Y0096112D01*
X0116004Y0095965D02*
X0121320Y0095965D01*
X0121320Y0095005D01*
X0122280Y0095005D01*
X0122280Y0095965D01*
X0121320Y0095965D01*
X0121320Y0101281D01*
X0120442Y0101142D01*
X0119574Y0100860D01*
X0118760Y0100446D01*
X0118022Y0099909D01*
X0117376Y0099263D01*
X0116839Y0098525D01*
X0116425Y0097711D01*
X0070206Y0097711D01*
X0071805Y0099309D02*
X0117422Y0099309D01*
X0116425Y0097711D02*
X0116143Y0096843D01*
X0116004Y0095965D01*
X0117766Y0091317D02*
X0081915Y0091317D01*
X0081915Y0089718D02*
X0121135Y0089718D01*
X0121320Y0089718D02*
X0122280Y0089718D01*
X0122280Y0089689D02*
X0123158Y0089828D01*
X0124026Y0090110D01*
X0124840Y0090524D01*
X0125578Y0091061D01*
X0126224Y0091707D01*
X0126761Y0092445D01*
X0127175Y0093259D01*
X0127457Y0094127D01*
X0127596Y0095005D01*
X0122280Y0095005D01*
X0122280Y0089689D01*
X0122465Y0089718D02*
X0131200Y0089718D01*
X0131200Y0091317D02*
X0125834Y0091317D01*
X0127000Y0092915D02*
X0131200Y0092915D01*
X0131200Y0094514D02*
X0127518Y0094514D01*
X0127596Y0095965D02*
X0127457Y0096843D01*
X0127175Y0097711D01*
X0131200Y0097711D01*
X0131200Y0099309D02*
X0126178Y0099309D01*
X0126224Y0099263D02*
X0125578Y0099909D01*
X0124840Y0100446D01*
X0124026Y0100860D01*
X0123158Y0101142D01*
X0122280Y0101281D01*
X0122280Y0095965D01*
X0127596Y0095965D01*
X0127573Y0096112D02*
X0131200Y0096112D01*
X0127175Y0097711D02*
X0126761Y0098525D01*
X0126224Y0099263D01*
X0123880Y0100908D02*
X0131200Y0100908D01*
X0131200Y0102506D02*
X0075002Y0102506D01*
X0076600Y0104105D02*
X0131200Y0104105D01*
X0131200Y0105703D02*
X0078199Y0105703D01*
X0079797Y0107302D02*
X0131200Y0107302D01*
X0131200Y0108900D02*
X0081396Y0108900D01*
X0074398Y0116893D02*
X0072814Y0116893D01*
X0072253Y0118491D02*
X0075996Y0118491D01*
X0077595Y0120090D02*
X0071028Y0120090D01*
X0073403Y0100908D02*
X0119720Y0100908D01*
X0121320Y0100908D02*
X0122280Y0100908D01*
X0122280Y0099309D02*
X0121320Y0099309D01*
X0121320Y0097711D02*
X0122280Y0097711D01*
X0122280Y0096112D02*
X0121320Y0096112D01*
X0121320Y0094514D02*
X0122280Y0094514D01*
X0122280Y0092915D02*
X0121320Y0092915D01*
X0121320Y0091317D02*
X0122280Y0091317D01*
X0117528Y0086521D02*
X0131200Y0086521D01*
X0131200Y0084923D02*
X0120173Y0084923D01*
X0121771Y0083324D02*
X0131200Y0083324D01*
X0131200Y0081726D02*
X0123370Y0081726D01*
X0127600Y0080127D02*
X0131200Y0080127D01*
X0131200Y0078529D02*
X0127600Y0078529D01*
X0127600Y0076930D02*
X0131200Y0076930D01*
X0131200Y0075332D02*
X0127600Y0075332D01*
X0127600Y0073733D02*
X0131200Y0073733D01*
X0131200Y0072134D02*
X0127600Y0072134D01*
X0127082Y0070536D02*
X0131200Y0070536D01*
X0131200Y0068937D02*
X0096261Y0068937D01*
X0096261Y0069025D02*
X0092087Y0069025D01*
X0092087Y0062685D01*
X0094698Y0062685D01*
X0095156Y0062808D01*
X0095567Y0063045D01*
X0095902Y0063380D01*
X0096139Y0063790D01*
X0096261Y0064248D01*
X0096261Y0069025D01*
X0096261Y0067339D02*
X0131200Y0067339D01*
X0131200Y0065740D02*
X0096261Y0065740D01*
X0096233Y0064142D02*
X0131200Y0064142D01*
X0131200Y0062543D02*
X0091416Y0062543D01*
X0091423Y0060945D02*
X0131200Y0060945D01*
X0131200Y0059346D02*
X0091423Y0059346D01*
X0091423Y0057748D02*
X0131200Y0057748D01*
X0131200Y0056149D02*
X0123113Y0056149D01*
X0123158Y0056142D02*
X0122280Y0056281D01*
X0122280Y0050965D01*
X0121320Y0050965D01*
X0121320Y0050005D01*
X0116004Y0050005D01*
X0116143Y0049127D01*
X0116425Y0048259D01*
X0116839Y0047445D01*
X0117376Y0046707D01*
X0118022Y0046061D01*
X0118760Y0045524D01*
X0119574Y0045110D01*
X0120442Y0044828D01*
X0121320Y0044689D01*
X0121320Y0050005D01*
X0122280Y0050005D01*
X0122280Y0050965D01*
X0127596Y0050965D01*
X0127457Y0051843D01*
X0127175Y0052711D01*
X0126761Y0053525D01*
X0126224Y0054263D01*
X0125578Y0054909D01*
X0124840Y0055446D01*
X0124026Y0055860D01*
X0123158Y0056142D01*
X0122280Y0056149D02*
X0121320Y0056149D01*
X0121320Y0056281D02*
X0120442Y0056142D01*
X0119574Y0055860D01*
X0118760Y0055446D01*
X0118022Y0054909D01*
X0117376Y0054263D01*
X0116839Y0053525D01*
X0116425Y0052711D01*
X0116143Y0051843D01*
X0116004Y0050965D01*
X0121320Y0050965D01*
X0121320Y0056281D01*
X0120487Y0056149D02*
X0090762Y0056149D01*
X0090537Y0064142D02*
X0092087Y0064142D01*
X0092087Y0065740D02*
X0090537Y0065740D01*
X0090537Y0067339D02*
X0092087Y0067339D01*
X0092087Y0068937D02*
X0090537Y0068937D01*
X0092087Y0070536D02*
X0116518Y0070536D01*
X0116000Y0072134D02*
X0096261Y0072134D01*
X0096261Y0073733D02*
X0116000Y0073733D01*
X0114773Y0075332D02*
X0096261Y0075332D01*
X0081591Y0088120D02*
X0131200Y0088120D01*
X0131200Y0110499D02*
X0092044Y0110499D01*
X0092600Y0112097D02*
X0131200Y0112097D01*
X0131200Y0113696D02*
X0092600Y0113696D01*
X0092600Y0115294D02*
X0131200Y0115294D01*
X0131200Y0116893D02*
X0092600Y0116893D01*
X0092600Y0118491D02*
X0131200Y0118491D01*
X0131200Y0120090D02*
X0092600Y0120090D01*
X0075575Y0096112D02*
X0074025Y0096112D01*
X0074025Y0094514D02*
X0075575Y0094514D01*
X0068009Y0088120D02*
X0067618Y0088120D01*
X0053982Y0088120D02*
X0049849Y0088120D01*
X0042800Y0078800D02*
X0053800Y0067800D01*
X0053800Y0066800D01*
X0052800Y0066800D01*
X0043800Y0075800D01*
X0041800Y0075800D01*
X0049700Y0067900D01*
X0049700Y0065200D01*
X0050375Y0065740D02*
X0054520Y0065740D01*
X0054450Y0065875D02*
X0054450Y0069387D01*
X0054402Y0069565D01*
X0054520Y0069516D01*
X0054520Y0068800D01*
X0054520Y0067480D01*
X0054642Y0067023D01*
X0054647Y0067015D01*
X0054520Y0066888D01*
X0054520Y0064894D01*
X0054151Y0064525D01*
X0050375Y0064525D01*
X0050375Y0065875D01*
X0054450Y0065875D01*
X0054450Y0067339D02*
X0054558Y0067339D01*
X0054520Y0068800D02*
X0057781Y0068800D01*
X0057782Y0068800D01*
X0054520Y0068800D01*
X0054520Y0068937D02*
X0054450Y0068937D01*
X0054800Y0068800D02*
X0050800Y0072800D01*
X0052261Y0072134D02*
X0053200Y0072134D01*
X0053200Y0073733D02*
X0052261Y0073733D01*
X0052261Y0075332D02*
X0053655Y0075332D01*
X0055800Y0073800D02*
X0062800Y0073800D01*
X0061800Y0072800D01*
X0058942Y0072800D01*
X0058682Y0072540D01*
X0055800Y0071800D02*
X0055800Y0073800D01*
X0055800Y0071800D02*
X0062800Y0071800D01*
X0062800Y0066800D01*
X0061060Y0065060D01*
X0058682Y0065060D01*
X0059800Y0061800D02*
X0060800Y0061800D01*
X0063800Y0064800D01*
X0063800Y0073800D01*
X0062800Y0073800D01*
X0062800Y0064800D01*
X0059800Y0061800D01*
X0069300Y0057036D02*
X0069300Y0057036D01*
X0069300Y0056149D02*
X0069300Y0056149D01*
X0069300Y0054551D02*
X0069300Y0054551D01*
X0069300Y0052952D02*
X0069300Y0052952D01*
X0069300Y0051354D02*
X0069300Y0051354D01*
X0071675Y0051354D02*
X0071925Y0051354D01*
X0066925Y0051354D02*
X0066675Y0051354D01*
X0063066Y0049755D02*
X0077260Y0049755D01*
X0077578Y0048157D02*
X0060934Y0048157D01*
X0059300Y0041763D02*
X0059300Y0041763D01*
X0059300Y0040164D02*
X0059300Y0040164D01*
X0059300Y0038566D02*
X0059300Y0038566D01*
X0059300Y0036967D02*
X0059300Y0036967D01*
X0056319Y0036967D02*
X0050100Y0036967D01*
X0050100Y0038566D02*
X0056319Y0038566D01*
X0056319Y0040164D02*
X0050100Y0040164D01*
X0050100Y0041763D02*
X0056542Y0041763D01*
X0050100Y0043361D02*
X0077685Y0043361D01*
X0077685Y0041763D02*
X0077158Y0041763D01*
X0077281Y0040164D02*
X0077685Y0040164D01*
X0077672Y0038566D02*
X0077685Y0038566D01*
X0078118Y0037984D02*
X0078739Y0037362D01*
X0090861Y0037362D01*
X0090862Y0037364D01*
X0091647Y0036579D01*
X0092470Y0036238D01*
X0092248Y0036238D01*
X0091790Y0036115D01*
X0091380Y0035878D01*
X0091300Y0035798D01*
X0091220Y0035878D01*
X0090810Y0036115D01*
X0090352Y0036238D01*
X0085575Y0036238D01*
X0085575Y0032063D01*
X0097025Y0032063D01*
X0097025Y0030513D01*
X0090685Y0030513D01*
X0085575Y0030513D01*
X0085575Y0032063D01*
X0084025Y0032063D01*
X0084025Y0036238D01*
X0079248Y0036238D01*
X0078790Y0036115D01*
X0078600Y0036005D01*
X0078600Y0036820D01*
X0078118Y0037984D01*
X0078539Y0036967D02*
X0091259Y0036967D01*
X0085575Y0035369D02*
X0084025Y0035369D01*
X0084025Y0033770D02*
X0085575Y0033770D01*
X0085575Y0032172D02*
X0084025Y0032172D01*
X0085575Y0030573D02*
X0097025Y0030573D01*
X0098575Y0030573D02*
X0108653Y0030573D01*
X0110251Y0028975D02*
X0104915Y0028975D01*
X0104753Y0027376D02*
X0111850Y0027376D01*
X0116277Y0025778D02*
X0078075Y0025778D01*
X0076553Y0024179D02*
X0131200Y0024179D01*
X0131200Y0025778D02*
X0127323Y0025778D01*
X0127600Y0027376D02*
X0131200Y0027376D01*
X0131200Y0028975D02*
X0127600Y0028975D01*
X0127600Y0030573D02*
X0131200Y0030573D01*
X0131200Y0032172D02*
X0127600Y0032172D01*
X0127600Y0033770D02*
X0131200Y0033770D01*
X0131200Y0035369D02*
X0127600Y0035369D01*
X0131200Y0036967D02*
X0122007Y0036967D01*
X0120408Y0038566D02*
X0131200Y0038566D01*
X0131200Y0040164D02*
X0118810Y0040164D01*
X0117211Y0041763D02*
X0131200Y0041763D01*
X0131200Y0043361D02*
X0115613Y0043361D01*
X0114014Y0044960D02*
X0120036Y0044960D01*
X0121320Y0044960D02*
X0122280Y0044960D01*
X0122280Y0044689D02*
X0123158Y0044828D01*
X0124026Y0045110D01*
X0124840Y0045524D01*
X0125578Y0046061D01*
X0126224Y0046707D01*
X0126761Y0047445D01*
X0127175Y0048259D01*
X0127457Y0049127D01*
X0127596Y0050005D01*
X0122280Y0050005D01*
X0122280Y0044689D01*
X0123564Y0044960D02*
X0131200Y0044960D01*
X0131200Y0046558D02*
X0126076Y0046558D01*
X0127123Y0048157D02*
X0131200Y0048157D01*
X0131200Y0049755D02*
X0127557Y0049755D01*
X0127535Y0051354D02*
X0131200Y0051354D01*
X0131200Y0052952D02*
X0127052Y0052952D01*
X0125937Y0054551D02*
X0131200Y0054551D01*
X0122280Y0054551D02*
X0121320Y0054551D01*
X0121320Y0052952D02*
X0122280Y0052952D01*
X0122280Y0051354D02*
X0121320Y0051354D01*
X0121320Y0049755D02*
X0122280Y0049755D01*
X0122280Y0048157D02*
X0121320Y0048157D01*
X0121320Y0046558D02*
X0122280Y0046558D01*
X0117524Y0046558D02*
X0112416Y0046558D01*
X0110817Y0048157D02*
X0116477Y0048157D01*
X0116043Y0049755D02*
X0109219Y0049755D01*
X0107620Y0051354D02*
X0116065Y0051354D01*
X0116548Y0052952D02*
X0106022Y0052952D01*
X0104423Y0054551D02*
X0117663Y0054551D01*
X0105456Y0033770D02*
X0104915Y0033770D01*
X0104915Y0032172D02*
X0107054Y0032172D01*
X0098575Y0028975D02*
X0097025Y0028975D01*
X0097025Y0027376D02*
X0098575Y0027376D01*
X0085575Y0027376D02*
X0084025Y0027376D01*
X0084025Y0028975D02*
X0085575Y0028975D01*
X0075261Y0022581D02*
X0131200Y0022581D01*
X0131200Y0020982D02*
X0075261Y0020982D01*
X0075261Y0019384D02*
X0131200Y0019384D01*
X0131200Y0017785D02*
X0075261Y0017785D01*
X0065362Y0017785D02*
X0064238Y0017785D01*
X0064238Y0019384D02*
X0065362Y0019384D01*
X0065362Y0020982D02*
X0064238Y0020982D01*
X0064238Y0022581D02*
X0065362Y0022581D01*
X0065362Y0024179D02*
X0064238Y0024179D01*
X0065152Y0025778D02*
X0065362Y0025778D01*
X0056319Y0032172D02*
X0023600Y0032172D01*
X0023600Y0033770D02*
X0056319Y0033770D01*
X0056319Y0035369D02*
X0049764Y0035369D01*
X0055051Y0030573D02*
X0023600Y0030573D01*
X0023600Y0028975D02*
X0054339Y0028975D01*
X0054339Y0027376D02*
X0023600Y0027376D01*
X0023600Y0025778D02*
X0054339Y0025778D01*
X0054339Y0024179D02*
X0023600Y0024179D01*
X0023600Y0022581D02*
X0035906Y0022581D01*
X0036005Y0022581D02*
X0036965Y0022581D01*
X0036965Y0022596D02*
X0037843Y0022457D01*
X0038711Y0022175D01*
X0039525Y0021761D01*
X0040263Y0021224D01*
X0040909Y0020578D01*
X0041446Y0019840D01*
X0041860Y0019026D01*
X0042142Y0018158D01*
X0042281Y0017280D01*
X0036965Y0017280D01*
X0036965Y0016320D01*
X0042281Y0016320D01*
X0042142Y0015442D01*
X0041860Y0014574D01*
X0041446Y0013760D01*
X0040909Y0013022D01*
X0040263Y0012376D01*
X0039525Y0011839D01*
X0038711Y0011425D01*
X0037843Y0011143D01*
X0036965Y0011004D01*
X0036965Y0016320D01*
X0036005Y0016320D01*
X0036005Y0011004D01*
X0035127Y0011143D01*
X0034259Y0011425D01*
X0033445Y0011839D01*
X0032707Y0012376D01*
X0032061Y0013022D01*
X0031524Y0013760D01*
X0031110Y0014574D01*
X0030828Y0015442D01*
X0030689Y0016320D01*
X0036005Y0016320D01*
X0036005Y0017280D01*
X0030689Y0017280D01*
X0030828Y0018158D01*
X0031110Y0019026D01*
X0031524Y0019840D01*
X0032061Y0020578D01*
X0032707Y0021224D01*
X0033445Y0021761D01*
X0034259Y0022175D01*
X0035127Y0022457D01*
X0036005Y0022596D01*
X0036005Y0017280D01*
X0036965Y0017280D01*
X0036965Y0022596D01*
X0037064Y0022581D02*
X0054339Y0022581D01*
X0054339Y0020982D02*
X0040505Y0020982D01*
X0041678Y0019384D02*
X0054339Y0019384D01*
X0054339Y0017785D02*
X0042201Y0017785D01*
X0042260Y0016187D02*
X0131200Y0016187D01*
X0131200Y0014588D02*
X0041865Y0014588D01*
X0040877Y0012990D02*
X0131200Y0012990D01*
X0131200Y0011391D02*
X0038607Y0011391D01*
X0036965Y0011391D02*
X0036005Y0011391D01*
X0036005Y0012990D02*
X0036965Y0012990D01*
X0036965Y0014588D02*
X0036005Y0014588D01*
X0036005Y0016187D02*
X0036965Y0016187D01*
X0036965Y0017785D02*
X0036005Y0017785D01*
X0036005Y0019384D02*
X0036965Y0019384D01*
X0036965Y0020982D02*
X0036005Y0020982D01*
X0032465Y0020982D02*
X0023600Y0020982D01*
X0023600Y0019384D02*
X0031292Y0019384D01*
X0030769Y0017785D02*
X0023600Y0017785D01*
X0023600Y0016187D02*
X0030710Y0016187D01*
X0031105Y0014588D02*
X0023244Y0014588D01*
X0022600Y0012990D02*
X0032093Y0012990D01*
X0034363Y0011391D02*
X0021937Y0011391D01*
X0023600Y0035369D02*
X0031836Y0035369D01*
X0031500Y0036967D02*
X0023600Y0036967D01*
X0023600Y0038566D02*
X0031500Y0038566D01*
X0031500Y0040164D02*
X0023600Y0040164D01*
X0023600Y0041763D02*
X0031500Y0041763D01*
X0031500Y0043361D02*
X0023600Y0043361D01*
X0023600Y0044960D02*
X0031500Y0044960D01*
X0037000Y0046558D02*
X0024175Y0046558D01*
X0025773Y0048157D02*
X0037000Y0048157D01*
X0037000Y0049755D02*
X0027372Y0049755D01*
X0028733Y0051354D02*
X0037000Y0051354D01*
X0037000Y0052952D02*
X0029395Y0052952D01*
X0029600Y0054551D02*
X0037000Y0054551D01*
X0037000Y0056149D02*
X0029600Y0056149D01*
X0029600Y0057748D02*
X0037000Y0057748D01*
X0037000Y0059346D02*
X0035337Y0059346D01*
X0022362Y0072134D02*
X0021238Y0072134D01*
X0021238Y0073733D02*
X0022362Y0073733D01*
X0022183Y0075332D02*
X0021238Y0075332D01*
X0022012Y0076930D02*
X0017063Y0076930D01*
X0017063Y0078529D02*
X0015513Y0078529D01*
X0015513Y0080127D02*
X0017063Y0080127D01*
X0017063Y0081726D02*
X0015513Y0081726D01*
X0015513Y0083324D02*
X0017063Y0083324D01*
X0017063Y0084923D02*
X0015513Y0084923D01*
X0015513Y0086521D02*
X0017063Y0086521D01*
X0017063Y0088120D02*
X0015513Y0088120D01*
X0017063Y0089718D02*
X0022012Y0089718D01*
X0022203Y0091317D02*
X0021238Y0091317D01*
X0021238Y0092915D02*
X0022362Y0092915D01*
X0022362Y0094514D02*
X0021238Y0094514D01*
X0020941Y0096112D02*
X0022500Y0096112D01*
X0022271Y0088120D02*
X0021238Y0088120D01*
X0021238Y0086521D02*
X0022362Y0086521D01*
X0022362Y0084923D02*
X0021238Y0084923D01*
X0020822Y0083324D02*
X0022500Y0083324D01*
X0022362Y0081726D02*
X0021238Y0081726D01*
X0021238Y0080127D02*
X0022362Y0080127D01*
X0022291Y0078529D02*
X0021238Y0078529D01*
X0041309Y0078529D02*
X0042362Y0078529D01*
X0041588Y0076930D02*
X0046537Y0076930D01*
X0049025Y0069685D02*
X0050375Y0069685D01*
X0050375Y0065875D01*
X0049025Y0065875D01*
X0049025Y0069685D01*
X0049025Y0068937D02*
X0050375Y0068937D01*
X0050375Y0067339D02*
X0049025Y0067339D01*
X0044600Y0046558D02*
X0078036Y0046558D01*
X0077685Y0044960D02*
X0050100Y0044960D01*
X0069300Y0041763D02*
X0069300Y0041763D01*
X0069300Y0040164D02*
X0069300Y0040164D01*
X0069300Y0038566D02*
X0069300Y0038566D01*
X0069300Y0036967D02*
X0069300Y0036967D01*
X0007486Y0057748D02*
X0007400Y0057748D01*
X0007400Y0112097D02*
X0017636Y0112097D01*
X0016700Y0113696D02*
X0007400Y0113696D01*
X0007400Y0115294D02*
X0016323Y0115294D01*
X0016416Y0116893D02*
X0007400Y0116893D01*
X0007400Y0118491D02*
X0016977Y0118491D01*
X0018202Y0120090D02*
X0007400Y0120090D01*
X0007400Y0121688D02*
X0131200Y0121688D01*
X0131200Y0123287D02*
X0007400Y0123287D01*
X0007400Y0124885D02*
X0131200Y0124885D01*
M02*
