G75*
%MOIN*%
%OFA0B0*%
%FSLAX25Y25*%
%IPPOS*%
%LPD*%
%AMOC8*
5,1,8,0,0,1.08239X$1,22.5*
%
%ADD10R,0.08000X0.08000*%
%ADD11C,0.08000*%
%ADD12C,0.01600*%
D10*
X0016800Y0016800D03*
X0041800Y0115800D03*
X0086800Y0115800D03*
X0121800Y0075800D03*
X0121800Y0030800D03*
D11*
X0121800Y0050485D03*
X0121800Y0095485D03*
X0067115Y0115800D03*
X0022115Y0115800D03*
X0036485Y0016800D03*
D12*
X0007400Y0007400D02*
X0007400Y0125800D01*
X0131200Y0125800D01*
X0131200Y0007400D01*
X0007400Y0007400D01*
X0007400Y0008194D02*
X0131200Y0008194D01*
X0131200Y0009793D02*
X0007400Y0009793D01*
X0007400Y0011391D02*
X0011663Y0011391D01*
X0012054Y0011000D02*
X0021546Y0011000D01*
X0022600Y0012054D01*
X0022600Y0021546D01*
X0021546Y0022600D01*
X0012054Y0022600D01*
X0011000Y0021546D01*
X0011000Y0012054D01*
X0012054Y0011000D01*
X0011000Y0012990D02*
X0007400Y0012990D01*
X0007400Y0014588D02*
X0011000Y0014588D01*
X0011000Y0016187D02*
X0007400Y0016187D01*
X0007400Y0017785D02*
X0011000Y0017785D01*
X0011000Y0019384D02*
X0007400Y0019384D01*
X0007400Y0020982D02*
X0011000Y0020982D01*
X0012035Y0022581D02*
X0007400Y0022581D01*
X0007400Y0024179D02*
X0131200Y0024179D01*
X0131200Y0025778D02*
X0127323Y0025778D01*
X0127600Y0026054D02*
X0126546Y0025000D01*
X0117054Y0025000D01*
X0116000Y0026054D01*
X0116000Y0035546D01*
X0117054Y0036600D01*
X0126546Y0036600D01*
X0127600Y0035546D01*
X0127600Y0026054D01*
X0127600Y0027376D02*
X0131200Y0027376D01*
X0131200Y0028975D02*
X0127600Y0028975D01*
X0127600Y0030573D02*
X0131200Y0030573D01*
X0131200Y0032172D02*
X0127600Y0032172D01*
X0127600Y0033770D02*
X0131200Y0033770D01*
X0131200Y0035369D02*
X0127600Y0035369D01*
X0131200Y0036967D02*
X0007400Y0036967D01*
X0007400Y0035369D02*
X0116000Y0035369D01*
X0116000Y0033770D02*
X0007400Y0033770D01*
X0007400Y0032172D02*
X0116000Y0032172D01*
X0116000Y0030573D02*
X0007400Y0030573D01*
X0007400Y0028975D02*
X0116000Y0028975D01*
X0116000Y0027376D02*
X0007400Y0027376D01*
X0007400Y0025778D02*
X0116277Y0025778D01*
X0131200Y0022581D02*
X0037064Y0022581D01*
X0036965Y0022581D02*
X0036005Y0022581D01*
X0036005Y0022596D02*
X0035127Y0022457D01*
X0034259Y0022175D01*
X0033445Y0021761D01*
X0032707Y0021224D01*
X0032061Y0020578D01*
X0031524Y0019840D01*
X0031110Y0019026D01*
X0030828Y0018158D01*
X0030689Y0017280D01*
X0036005Y0017280D01*
X0036005Y0016320D01*
X0036965Y0016320D01*
X0036965Y0017280D01*
X0042281Y0017280D01*
X0042142Y0018158D01*
X0041860Y0019026D01*
X0041446Y0019840D01*
X0040909Y0020578D01*
X0040263Y0021224D01*
X0039525Y0021761D01*
X0038711Y0022175D01*
X0037843Y0022457D01*
X0036965Y0022596D01*
X0036965Y0017280D01*
X0036005Y0017280D01*
X0036005Y0022596D01*
X0035906Y0022581D02*
X0021565Y0022581D01*
X0022600Y0020982D02*
X0032465Y0020982D01*
X0031292Y0019384D02*
X0022600Y0019384D01*
X0022600Y0017785D02*
X0030769Y0017785D01*
X0030689Y0016320D02*
X0030828Y0015442D01*
X0031110Y0014574D01*
X0031524Y0013760D01*
X0032061Y0013022D01*
X0032707Y0012376D01*
X0033445Y0011839D01*
X0034259Y0011425D01*
X0035127Y0011143D01*
X0036005Y0011004D01*
X0036005Y0016320D01*
X0030689Y0016320D01*
X0030710Y0016187D02*
X0022600Y0016187D01*
X0022600Y0014588D02*
X0031105Y0014588D01*
X0032093Y0012990D02*
X0022600Y0012990D01*
X0021937Y0011391D02*
X0034363Y0011391D01*
X0036005Y0011391D02*
X0036965Y0011391D01*
X0036965Y0011004D02*
X0037843Y0011143D01*
X0038711Y0011425D01*
X0039525Y0011839D01*
X0040263Y0012376D01*
X0040909Y0013022D01*
X0041446Y0013760D01*
X0041860Y0014574D01*
X0042142Y0015442D01*
X0042281Y0016320D01*
X0036965Y0016320D01*
X0036965Y0011004D01*
X0038607Y0011391D02*
X0131200Y0011391D01*
X0131200Y0012990D02*
X0040877Y0012990D01*
X0041865Y0014588D02*
X0131200Y0014588D01*
X0131200Y0016187D02*
X0042260Y0016187D01*
X0042201Y0017785D02*
X0131200Y0017785D01*
X0131200Y0019384D02*
X0041678Y0019384D01*
X0040505Y0020982D02*
X0131200Y0020982D01*
X0131200Y0038566D02*
X0007400Y0038566D01*
X0007400Y0040164D02*
X0131200Y0040164D01*
X0131200Y0041763D02*
X0007400Y0041763D01*
X0007400Y0043361D02*
X0131200Y0043361D01*
X0131200Y0044960D02*
X0123564Y0044960D01*
X0123158Y0044828D02*
X0124026Y0045110D01*
X0124840Y0045524D01*
X0125578Y0046061D01*
X0126224Y0046707D01*
X0126761Y0047445D01*
X0127175Y0048259D01*
X0127457Y0049127D01*
X0127596Y0050005D01*
X0122280Y0050005D01*
X0122280Y0050965D01*
X0121320Y0050965D01*
X0121320Y0050005D01*
X0116004Y0050005D01*
X0116143Y0049127D01*
X0116425Y0048259D01*
X0116839Y0047445D01*
X0117376Y0046707D01*
X0118022Y0046061D01*
X0118760Y0045524D01*
X0119574Y0045110D01*
X0120442Y0044828D01*
X0121320Y0044689D01*
X0121320Y0050005D01*
X0122280Y0050005D01*
X0122280Y0044689D01*
X0123158Y0044828D01*
X0122280Y0044960D02*
X0121320Y0044960D01*
X0120036Y0044960D02*
X0007400Y0044960D01*
X0007400Y0046558D02*
X0117524Y0046558D01*
X0116477Y0048157D02*
X0007400Y0048157D01*
X0007400Y0049755D02*
X0116043Y0049755D01*
X0116004Y0050965D02*
X0121320Y0050965D01*
X0121320Y0056281D01*
X0120442Y0056142D01*
X0119574Y0055860D01*
X0118760Y0055446D01*
X0118022Y0054909D01*
X0117376Y0054263D01*
X0116839Y0053525D01*
X0116425Y0052711D01*
X0116143Y0051843D01*
X0116004Y0050965D01*
X0116065Y0051354D02*
X0007400Y0051354D01*
X0007400Y0052952D02*
X0116548Y0052952D01*
X0117663Y0054551D02*
X0007400Y0054551D01*
X0007400Y0056149D02*
X0120487Y0056149D01*
X0121320Y0056149D02*
X0122280Y0056149D01*
X0122280Y0056281D02*
X0122280Y0050965D01*
X0127596Y0050965D01*
X0127457Y0051843D01*
X0127175Y0052711D01*
X0126761Y0053525D01*
X0126224Y0054263D01*
X0125578Y0054909D01*
X0124840Y0055446D01*
X0124026Y0055860D01*
X0123158Y0056142D01*
X0122280Y0056281D01*
X0123113Y0056149D02*
X0131200Y0056149D01*
X0131200Y0057748D02*
X0007400Y0057748D01*
X0007400Y0059346D02*
X0131200Y0059346D01*
X0131200Y0060945D02*
X0007400Y0060945D01*
X0007400Y0062543D02*
X0131200Y0062543D01*
X0131200Y0064142D02*
X0007400Y0064142D01*
X0007400Y0065740D02*
X0131200Y0065740D01*
X0131200Y0067339D02*
X0007400Y0067339D01*
X0007400Y0068937D02*
X0131200Y0068937D01*
X0131200Y0070536D02*
X0127082Y0070536D01*
X0127600Y0071054D02*
X0126546Y0070000D01*
X0117054Y0070000D01*
X0116000Y0071054D01*
X0116000Y0080546D01*
X0117054Y0081600D01*
X0126546Y0081600D01*
X0127600Y0080546D01*
X0127600Y0071054D01*
X0127600Y0072134D02*
X0131200Y0072134D01*
X0131200Y0073733D02*
X0127600Y0073733D01*
X0127600Y0075332D02*
X0131200Y0075332D01*
X0131200Y0076930D02*
X0127600Y0076930D01*
X0127600Y0078529D02*
X0131200Y0078529D01*
X0131200Y0080127D02*
X0127600Y0080127D01*
X0131200Y0081726D02*
X0007400Y0081726D01*
X0007400Y0083324D02*
X0131200Y0083324D01*
X0131200Y0084923D02*
X0007400Y0084923D01*
X0007400Y0086521D02*
X0131200Y0086521D01*
X0131200Y0088120D02*
X0007400Y0088120D01*
X0007400Y0089718D02*
X0121135Y0089718D01*
X0121320Y0089718D02*
X0122280Y0089718D01*
X0122280Y0089689D02*
X0123158Y0089828D01*
X0124026Y0090110D01*
X0124840Y0090524D01*
X0125578Y0091061D01*
X0126224Y0091707D01*
X0126761Y0092445D01*
X0127175Y0093259D01*
X0127457Y0094127D01*
X0127596Y0095005D01*
X0122280Y0095005D01*
X0122280Y0095965D01*
X0121320Y0095965D01*
X0121320Y0095005D01*
X0116004Y0095005D01*
X0116143Y0094127D01*
X0116425Y0093259D01*
X0116839Y0092445D01*
X0117376Y0091707D01*
X0118022Y0091061D01*
X0118760Y0090524D01*
X0119574Y0090110D01*
X0120442Y0089828D01*
X0121320Y0089689D01*
X0121320Y0095005D01*
X0122280Y0095005D01*
X0122280Y0089689D01*
X0122465Y0089718D02*
X0131200Y0089718D01*
X0131200Y0091317D02*
X0125834Y0091317D01*
X0127000Y0092915D02*
X0131200Y0092915D01*
X0131200Y0094514D02*
X0127518Y0094514D01*
X0127596Y0095965D02*
X0127457Y0096843D01*
X0127175Y0097711D01*
X0131200Y0097711D01*
X0131200Y0099309D02*
X0126178Y0099309D01*
X0126224Y0099263D02*
X0125578Y0099909D01*
X0124840Y0100446D01*
X0124026Y0100860D01*
X0123158Y0101142D01*
X0122280Y0101281D01*
X0122280Y0095965D01*
X0127596Y0095965D01*
X0127573Y0096112D02*
X0131200Y0096112D01*
X0127175Y0097711D02*
X0126761Y0098525D01*
X0126224Y0099263D01*
X0123880Y0100908D02*
X0131200Y0100908D01*
X0131200Y0102506D02*
X0007400Y0102506D01*
X0007400Y0100908D02*
X0119720Y0100908D01*
X0119574Y0100860D02*
X0118760Y0100446D01*
X0118022Y0099909D01*
X0117376Y0099263D01*
X0116839Y0098525D01*
X0116425Y0097711D01*
X0007400Y0097711D01*
X0007400Y0099309D02*
X0117422Y0099309D01*
X0116425Y0097711D02*
X0116143Y0096843D01*
X0116004Y0095965D01*
X0121320Y0095965D01*
X0121320Y0101281D01*
X0120442Y0101142D01*
X0119574Y0100860D01*
X0121320Y0100908D02*
X0122280Y0100908D01*
X0122280Y0099309D02*
X0121320Y0099309D01*
X0121320Y0097711D02*
X0122280Y0097711D01*
X0122280Y0096112D02*
X0121320Y0096112D01*
X0121320Y0094514D02*
X0122280Y0094514D01*
X0122280Y0092915D02*
X0121320Y0092915D01*
X0121320Y0091317D02*
X0122280Y0091317D01*
X0117766Y0091317D02*
X0007400Y0091317D01*
X0007400Y0092915D02*
X0116600Y0092915D01*
X0116082Y0094514D02*
X0007400Y0094514D01*
X0007400Y0096112D02*
X0116027Y0096112D01*
X0131200Y0104105D02*
X0007400Y0104105D01*
X0007400Y0105703D02*
X0131200Y0105703D01*
X0131200Y0107302D02*
X0007400Y0107302D01*
X0007400Y0108900D02*
X0131200Y0108900D01*
X0131200Y0110499D02*
X0092044Y0110499D01*
X0091546Y0110000D02*
X0092600Y0111054D01*
X0092600Y0120546D01*
X0091546Y0121600D01*
X0082054Y0121600D01*
X0081000Y0120546D01*
X0081000Y0111054D01*
X0082054Y0110000D01*
X0091546Y0110000D01*
X0092600Y0112097D02*
X0131200Y0112097D01*
X0131200Y0113696D02*
X0092600Y0113696D01*
X0092600Y0115294D02*
X0131200Y0115294D01*
X0131200Y0116893D02*
X0092600Y0116893D01*
X0092600Y0118491D02*
X0131200Y0118491D01*
X0131200Y0120090D02*
X0092600Y0120090D01*
X0081000Y0120090D02*
X0071028Y0120090D01*
X0070893Y0120224D02*
X0070155Y0120761D01*
X0069341Y0121175D01*
X0068473Y0121457D01*
X0067594Y0121596D01*
X0067594Y0116280D01*
X0066635Y0116280D01*
X0066635Y0121596D01*
X0065757Y0121457D01*
X0064889Y0121175D01*
X0064075Y0120761D01*
X0063337Y0120224D01*
X0062691Y0119578D01*
X0062154Y0118840D01*
X0061740Y0118026D01*
X0061458Y0117158D01*
X0061319Y0116280D01*
X0066635Y0116280D01*
X0066635Y0115320D01*
X0067594Y0115320D01*
X0067594Y0110004D01*
X0068473Y0110143D01*
X0069341Y0110425D01*
X0070155Y0110839D01*
X0070893Y0111376D01*
X0071539Y0112022D01*
X0072076Y0112760D01*
X0072490Y0113574D01*
X0072772Y0114442D01*
X0072911Y0115320D01*
X0067595Y0115320D01*
X0067595Y0116280D01*
X0072911Y0116280D01*
X0072772Y0117158D01*
X0072490Y0118026D01*
X0072076Y0118840D01*
X0071539Y0119578D01*
X0070893Y0120224D01*
X0072253Y0118491D02*
X0081000Y0118491D01*
X0081000Y0116893D02*
X0072814Y0116893D01*
X0072907Y0115294D02*
X0081000Y0115294D01*
X0081000Y0113696D02*
X0072530Y0113696D01*
X0071594Y0112097D02*
X0081000Y0112097D01*
X0081556Y0110499D02*
X0069486Y0110499D01*
X0067594Y0110499D02*
X0066635Y0110499D01*
X0066635Y0110004D02*
X0066635Y0115320D01*
X0061319Y0115320D01*
X0061458Y0114442D01*
X0061740Y0113574D01*
X0062154Y0112760D01*
X0062691Y0112022D01*
X0063337Y0111376D01*
X0064075Y0110839D01*
X0064889Y0110425D01*
X0065757Y0110143D01*
X0066635Y0110004D01*
X0066635Y0112097D02*
X0067594Y0112097D01*
X0067594Y0113696D02*
X0066635Y0113696D01*
X0066635Y0115294D02*
X0067594Y0115294D01*
X0067594Y0116893D02*
X0066635Y0116893D01*
X0066635Y0118491D02*
X0067594Y0118491D01*
X0067594Y0120090D02*
X0066635Y0120090D01*
X0063202Y0120090D02*
X0047600Y0120090D01*
X0047600Y0120546D02*
X0046546Y0121600D01*
X0037054Y0121600D01*
X0036000Y0120546D01*
X0036000Y0111054D01*
X0037054Y0110000D01*
X0046546Y0110000D01*
X0047600Y0111054D01*
X0047600Y0120546D01*
X0047600Y0118491D02*
X0061977Y0118491D01*
X0061416Y0116893D02*
X0047600Y0116893D01*
X0047600Y0115294D02*
X0061323Y0115294D01*
X0061700Y0113696D02*
X0047600Y0113696D01*
X0047600Y0112097D02*
X0062636Y0112097D01*
X0064744Y0110499D02*
X0047044Y0110499D01*
X0036556Y0110499D02*
X0024486Y0110499D01*
X0024341Y0110425D02*
X0025155Y0110839D01*
X0025893Y0111376D01*
X0026539Y0112022D01*
X0027076Y0112760D01*
X0027490Y0113574D01*
X0027772Y0114442D01*
X0027911Y0115320D01*
X0022595Y0115320D01*
X0022595Y0116280D01*
X0027911Y0116280D01*
X0027772Y0117158D01*
X0027490Y0118026D01*
X0027076Y0118840D01*
X0026539Y0119578D01*
X0025893Y0120224D01*
X0025155Y0120761D01*
X0024341Y0121175D01*
X0023473Y0121457D01*
X0022594Y0121596D01*
X0022594Y0116280D01*
X0021635Y0116280D01*
X0021635Y0121596D01*
X0020757Y0121457D01*
X0019889Y0121175D01*
X0019075Y0120761D01*
X0018337Y0120224D01*
X0017691Y0119578D01*
X0017154Y0118840D01*
X0016740Y0118026D01*
X0016458Y0117158D01*
X0016319Y0116280D01*
X0021635Y0116280D01*
X0021635Y0115320D01*
X0022594Y0115320D01*
X0022594Y0110004D01*
X0023473Y0110143D01*
X0024341Y0110425D01*
X0022594Y0110499D02*
X0021635Y0110499D01*
X0021635Y0110004D02*
X0021635Y0115320D01*
X0016319Y0115320D01*
X0016458Y0114442D01*
X0016740Y0113574D01*
X0017154Y0112760D01*
X0017691Y0112022D01*
X0018337Y0111376D01*
X0019075Y0110839D01*
X0019889Y0110425D01*
X0020757Y0110143D01*
X0021635Y0110004D01*
X0019744Y0110499D02*
X0007400Y0110499D01*
X0007400Y0112097D02*
X0017636Y0112097D01*
X0016700Y0113696D02*
X0007400Y0113696D01*
X0007400Y0115294D02*
X0016323Y0115294D01*
X0016416Y0116893D02*
X0007400Y0116893D01*
X0007400Y0118491D02*
X0016977Y0118491D01*
X0018202Y0120090D02*
X0007400Y0120090D01*
X0007400Y0121688D02*
X0131200Y0121688D01*
X0131200Y0123287D02*
X0007400Y0123287D01*
X0007400Y0124885D02*
X0131200Y0124885D01*
X0116000Y0080127D02*
X0007400Y0080127D01*
X0007400Y0078529D02*
X0116000Y0078529D01*
X0116000Y0076930D02*
X0007400Y0076930D01*
X0007400Y0075332D02*
X0116000Y0075332D01*
X0116000Y0073733D02*
X0007400Y0073733D01*
X0007400Y0072134D02*
X0116000Y0072134D01*
X0116518Y0070536D02*
X0007400Y0070536D01*
X0021635Y0112097D02*
X0022594Y0112097D01*
X0022594Y0113696D02*
X0021635Y0113696D01*
X0021635Y0115294D02*
X0022594Y0115294D01*
X0022594Y0116893D02*
X0021635Y0116893D01*
X0021635Y0118491D02*
X0022594Y0118491D01*
X0022594Y0120090D02*
X0021635Y0120090D01*
X0026028Y0120090D02*
X0036000Y0120090D01*
X0036000Y0118491D02*
X0027253Y0118491D01*
X0027814Y0116893D02*
X0036000Y0116893D01*
X0036000Y0115294D02*
X0027907Y0115294D01*
X0027530Y0113696D02*
X0036000Y0113696D01*
X0036000Y0112097D02*
X0026594Y0112097D01*
X0036005Y0020982D02*
X0036965Y0020982D01*
X0036965Y0019384D02*
X0036005Y0019384D01*
X0036005Y0017785D02*
X0036965Y0017785D01*
X0036965Y0016187D02*
X0036005Y0016187D01*
X0036005Y0014588D02*
X0036965Y0014588D01*
X0036965Y0012990D02*
X0036005Y0012990D01*
X0121320Y0046558D02*
X0122280Y0046558D01*
X0122280Y0048157D02*
X0121320Y0048157D01*
X0121320Y0049755D02*
X0122280Y0049755D01*
X0122280Y0051354D02*
X0121320Y0051354D01*
X0121320Y0052952D02*
X0122280Y0052952D01*
X0122280Y0054551D02*
X0121320Y0054551D01*
X0125937Y0054551D02*
X0131200Y0054551D01*
X0131200Y0052952D02*
X0127052Y0052952D01*
X0127535Y0051354D02*
X0131200Y0051354D01*
X0131200Y0049755D02*
X0127557Y0049755D01*
X0127123Y0048157D02*
X0131200Y0048157D01*
X0131200Y0046558D02*
X0126076Y0046558D01*
M02*
